<?xml version="1.0" encoding="UTF-8" standalone="no"?>
<!DOCTYPE svg PUBLIC "-//W3C//DTD SVG 1.1//EN"
 "http://www.w3.org/Graphics/SVG/1.1/DTD/svg11.dtd">
<!-- Generated by graphviz version 2.43.0 (0)
 -->
<!-- Title: G Pages: 1 -->
<svg width="249pt" height="378pt"
 viewBox="0.00 0.00 249.11 378.00" xmlns="http://www.w3.org/2000/svg" xmlns:xlink="http://www.w3.org/1999/xlink">
<g id="graph0" class="graph" transform="scale(1 1) rotate(0) translate(4 374)">
<title>G</title>
<polygon fill="white" stroke="transparent" points="-4,4 -4,-374 245.11,-374 245.11,4 -4,4"/>
<!-- 0 -->
<g id="node1" class="node">
<title>0</title>
<ellipse fill="none" stroke="black" cx="84.1" cy="-352" rx="38.99" ry="18"/>
<text text-anchor="middle" x="84.1" y="-348.3" font-family="Times,serif" font-size="14.00">queen</text>
</g>
<!-- 1 -->
<g id="node2" class="node">
<title>1</title>
<ellipse fill="none" stroke="black" cx="57.1" cy="-265" rx="48.19" ry="18"/>
<text text-anchor="middle" x="57.1" y="-261.3" font-family="Times,serif" font-size="14.00">next.ret</text>
</g>
<!-- 0&#45;&gt;1 -->
<g id="edge1" class="edge">
<title>0&#45;&gt;1</title>
<path fill="none" stroke="black" d="M78.63,-333.8C74.9,-322.05 69.88,-306.24 65.62,-292.84"/>
<polygon fill="black" stroke="black" points="68.91,-291.65 62.55,-283.18 62.24,-293.77 68.91,-291.65"/>
<text text-anchor="middle" x="88.6" y="-304.8" font-family="Times,serif" font-size="14.00">true</text>
</g>
<!-- 2 -->
<g id="node3" class="node">
<title>2</title>
<ellipse fill="none" stroke="black" cx="171.1" cy="-265" rx="48.19" ry="18"/>
<text text-anchor="middle" x="171.1" y="-261.3" font-family="Times,serif" font-size="14.00">for.cond</text>
</g>
<!-- 0&#45;&gt;2 -->
<g id="edge2" class="edge">
<title>0&#45;&gt;2</title>
<path fill="none" stroke="black" d="M100.05,-335.41C113.25,-322.51 132.2,-304 147.21,-289.34"/>
<polygon fill="black" stroke="black" points="149.94,-291.56 154.65,-282.07 145.05,-286.55 149.94,-291.56"/>
<text text-anchor="middle" x="150.1" y="-304.8" font-family="Times,serif" font-size="14.00">false</text>
</g>
<!-- 3 -->
<g id="node4" class="node">
<title>3</title>
<ellipse fill="none" stroke="black" cx="48.1" cy="-178" rx="48.19" ry="18"/>
<text text-anchor="middle" x="48.1" y="-174.3" font-family="Times,serif" font-size="14.00">for.body</text>
</g>
<!-- 2&#45;&gt;3 -->
<g id="edge3" class="edge">
<title>2&#45;&gt;3</title>
<path fill="none" stroke="black" d="M149.11,-248.8C129.34,-235.15 100.13,-214.96 78.2,-199.81"/>
<polygon fill="black" stroke="black" points="80.11,-196.87 69.9,-194.06 76.13,-202.63 80.11,-196.87"/>
<text text-anchor="middle" x="132.6" y="-217.8" font-family="Times,serif" font-size="14.00">true</text>
</g>
<!-- 6 -->
<g id="node7" class="node">
<title>6</title>
<ellipse fill="none" stroke="black" cx="171.1" cy="-178" rx="56.59" ry="18"/>
<text text-anchor="middle" x="171.1" y="-174.3" font-family="Times,serif" font-size="14.00">next.ret.1</text>
</g>
<!-- 2&#45;&gt;6 -->
<g id="edge4" class="edge">
<title>2&#45;&gt;6</title>
<path fill="none" stroke="black" d="M171.1,-246.8C171.1,-235.16 171.1,-219.55 171.1,-206.24"/>
<polygon fill="black" stroke="black" points="174.6,-206.18 171.1,-196.18 167.6,-206.18 174.6,-206.18"/>
<text text-anchor="middle" x="188.1" y="-217.8" font-family="Times,serif" font-size="14.00">false</text>
</g>
<!-- 4 -->
<g id="node5" class="node">
<title>4</title>
<ellipse fill="none" stroke="black" cx="48.1" cy="-91" rx="48.19" ry="18"/>
<text text-anchor="middle" x="48.1" y="-87.3" font-family="Times,serif" font-size="14.00">rec.func</text>
</g>
<!-- 3&#45;&gt;4 -->
<g id="edge5" class="edge">
<title>3&#45;&gt;4</title>
<path fill="none" stroke="black" d="M48.1,-159.8C48.1,-148.16 48.1,-132.55 48.1,-119.24"/>
<polygon fill="black" stroke="black" points="51.6,-119.18 48.1,-109.18 44.6,-119.18 51.6,-119.18"/>
<text text-anchor="middle" x="63.6" y="-130.8" font-family="Times,serif" font-size="14.00">true</text>
</g>
<!-- 5 -->
<g id="node6" class="node">
<title>5</title>
<ellipse fill="none" stroke="black" cx="132.1" cy="-18" rx="53.89" ry="18"/>
<text text-anchor="middle" x="132.1" y="-14.3" font-family="Times,serif" font-size="14.00">next.loop</text>
</g>
<!-- 3&#45;&gt;5 -->
<g id="edge6" class="edge">
<title>3&#45;&gt;5</title>
<path fill="none" stroke="black" d="M65.53,-160.9C71.38,-155.17 77.76,-148.51 83.1,-142 94.27,-128.37 97.59,-124.95 105.1,-109 114.62,-88.76 121.68,-64.39 126.19,-46.12"/>
<polygon fill="black" stroke="black" points="129.66,-46.67 128.55,-36.14 122.85,-45.06 129.66,-46.67"/>
<text text-anchor="middle" x="136.1" y="-87.3" font-family="Times,serif" font-size="14.00">false</text>
</g>
<!-- 4&#45;&gt;5 -->
<g id="edge7" class="edge">
<title>4&#45;&gt;5</title>
<path fill="none" stroke="black" d="M66.74,-74.24C78.08,-64.66 92.75,-52.26 105.32,-41.64"/>
<polygon fill="black" stroke="black" points="107.84,-44.09 113.22,-34.96 103.32,-38.74 107.84,-44.09"/>
</g>
<!-- 5&#45;&gt;2 -->
<g id="edge8" class="edge">
<title>5&#45;&gt;2</title>
<path fill="none" stroke="black" d="M149.79,-35.11C174.92,-59.33 219.81,-107.85 237.1,-160 242.13,-175.19 242.61,-180.98 237.1,-196 230.32,-214.46 215.48,-230.51 201.59,-242.37"/>
<polygon fill="black" stroke="black" points="199.15,-239.84 193.58,-248.86 203.56,-245.28 199.15,-239.84"/>
</g>
</g>
</svg>
