<?xml version="1.0" encoding="UTF-8" standalone="no"?>
<!DOCTYPE svg PUBLIC "-//W3C//DTD SVG 1.1//EN"
 "http://www.w3.org/Graphics/SVG/1.1/DTD/svg11.dtd">
<!-- Generated by graphviz version 2.43.0 (0)
 -->
<!-- Title: G Pages: 1 -->
<svg width="353pt" height="378pt"
 viewBox="0.00 0.00 353.14 378.00" xmlns="http://www.w3.org/2000/svg" xmlns:xlink="http://www.w3.org/1999/xlink">
<g id="graph0" class="graph" transform="scale(1 1) rotate(0) translate(4 374)">
<title>G</title>
<polygon fill="white" stroke="transparent" points="-4,4 -4,-374 349.14,-374 349.14,4 -4,4"/>
<!-- 0 -->
<g id="node1" class="node">
<title>0</title>
<ellipse fill="none" stroke="black" cx="217.9" cy="-352" rx="33.29" ry="18"/>
<text text-anchor="middle" x="217.9" y="-348.3" font-family="Times,serif" font-size="14.00">valid</text>
</g>
<!-- 1 -->
<g id="node2" class="node">
<title>1</title>
<ellipse fill="none" stroke="black" cx="217.9" cy="-279" rx="48.19" ry="18"/>
<text text-anchor="middle" x="217.9" y="-275.3" font-family="Times,serif" font-size="14.00">for.cond</text>
</g>
<!-- 0&#45;&gt;1 -->
<g id="edge1" class="edge">
<title>0&#45;&gt;1</title>
<path fill="none" stroke="black" d="M217.9,-333.81C217.9,-325.79 217.9,-316.05 217.9,-307.07"/>
<polygon fill="black" stroke="black" points="221.4,-307.03 217.9,-297.03 214.4,-307.03 221.4,-307.03"/>
</g>
<!-- 2 -->
<g id="node3" class="node">
<title>2</title>
<ellipse fill="none" stroke="black" cx="107.9" cy="-192" rx="48.19" ry="18"/>
<text text-anchor="middle" x="107.9" y="-188.3" font-family="Times,serif" font-size="14.00">for.body</text>
</g>
<!-- 1&#45;&gt;2 -->
<g id="edge2" class="edge">
<title>1&#45;&gt;2</title>
<path fill="none" stroke="black" d="M197.97,-262.61C180.72,-249.27 155.55,-229.82 136.2,-214.87"/>
<polygon fill="black" stroke="black" points="138.09,-211.91 128.04,-208.57 133.81,-217.45 138.09,-211.91"/>
<text text-anchor="middle" x="185.4" y="-231.8" font-family="Times,serif" font-size="14.00">true</text>
</g>
<!-- 7 -->
<g id="node8" class="node">
<title>7</title>
<ellipse fill="none" stroke="black" cx="217.9" cy="-192" rx="44.39" ry="18"/>
<text text-anchor="middle" x="217.9" y="-188.3" font-family="Times,serif" font-size="14.00">ret.end</text>
</g>
<!-- 1&#45;&gt;7 -->
<g id="edge3" class="edge">
<title>1&#45;&gt;7</title>
<path fill="none" stroke="black" d="M217.9,-260.8C217.9,-249.16 217.9,-233.55 217.9,-220.24"/>
<polygon fill="black" stroke="black" points="221.4,-220.18 217.9,-210.18 214.4,-220.18 221.4,-220.18"/>
<text text-anchor="middle" x="234.9" y="-231.8" font-family="Times,serif" font-size="14.00">false</text>
</g>
<!-- 3 -->
<g id="node4" class="node">
<title>3</title>
<ellipse fill="none" stroke="black" cx="55.9" cy="-105" rx="55.79" ry="18"/>
<text text-anchor="middle" x="55.9" y="-101.3" font-family="Times,serif" font-size="14.00">true.ret.0</text>
</g>
<!-- 2&#45;&gt;3 -->
<g id="edge4" class="edge">
<title>2&#45;&gt;3</title>
<path fill="none" stroke="black" d="M97.62,-174.21C90.14,-161.98 79.88,-145.21 71.41,-131.36"/>
<polygon fill="black" stroke="black" points="74.35,-129.46 66.15,-122.76 68.38,-133.12 74.35,-129.46"/>
<text text-anchor="middle" x="101.4" y="-144.8" font-family="Times,serif" font-size="14.00">true</text>
</g>
<!-- 4 -->
<g id="node5" class="node">
<title>4</title>
<ellipse fill="none" stroke="black" cx="183.9" cy="-105" rx="53.89" ry="18"/>
<text text-anchor="middle" x="183.9" y="-101.3" font-family="Times,serif" font-size="14.00">false.else</text>
</g>
<!-- 2&#45;&gt;4 -->
<g id="edge5" class="edge">
<title>2&#45;&gt;4</title>
<path fill="none" stroke="black" d="M122.55,-174.61C133.9,-161.91 149.8,-144.13 162.57,-129.86"/>
<polygon fill="black" stroke="black" points="165.23,-132.13 169.29,-122.34 160.01,-127.46 165.23,-132.13"/>
<text text-anchor="middle" x="167.9" y="-144.8" font-family="Times,serif" font-size="14.00">false</text>
</g>
<!-- 5 -->
<g id="node6" class="node">
<title>5</title>
<ellipse fill="none" stroke="black" cx="160.9" cy="-18" rx="55.79" ry="18"/>
<text text-anchor="middle" x="160.9" y="-14.3" font-family="Times,serif" font-size="14.00">true.ret.1</text>
</g>
<!-- 4&#45;&gt;5 -->
<g id="edge6" class="edge">
<title>4&#45;&gt;5</title>
<path fill="none" stroke="black" d="M179.24,-86.8C176.06,-75.05 171.78,-59.24 168.16,-45.84"/>
<polygon fill="black" stroke="black" points="171.53,-44.91 165.54,-36.18 164.78,-46.74 171.53,-44.91"/>
<text text-anchor="middle" x="189.4" y="-57.8" font-family="Times,serif" font-size="14.00">true</text>
</g>
<!-- 6 -->
<g id="node7" class="node">
<title>6</title>
<ellipse fill="none" stroke="black" cx="289.9" cy="-18" rx="55.49" ry="18"/>
<text text-anchor="middle" x="289.9" y="-14.3" font-family="Times,serif" font-size="14.00">false.loop</text>
</g>
<!-- 4&#45;&gt;6 -->
<g id="edge7" class="edge">
<title>4&#45;&gt;6</title>
<path fill="none" stroke="black" d="M201.86,-87.85C213.16,-77.86 228.15,-64.91 241.9,-54 247.43,-49.61 253.44,-45.06 259.28,-40.75"/>
<polygon fill="black" stroke="black" points="261.61,-43.38 267.63,-34.66 257.49,-37.73 261.61,-43.38"/>
<text text-anchor="middle" x="258.9" y="-57.8" font-family="Times,serif" font-size="14.00">false</text>
</g>
<!-- 6&#45;&gt;1 -->
<g id="edge8" class="edge">
<title>6&#45;&gt;1</title>
<path fill="none" stroke="black" d="M290.05,-36.2C289.94,-70.07 287.7,-147.57 270.9,-210 266.71,-225.56 265.34,-229.95 255.9,-243 252.82,-247.25 249.16,-251.39 245.36,-255.24"/>
<polygon fill="black" stroke="black" points="242.81,-252.83 237.96,-262.25 247.62,-257.91 242.81,-252.83"/>
</g>
</g>
</svg>
